<svg width="50" height="50" viewBox="0 0 40.5 40.5" fill="none" xmlns="http://www.w3.org/2000/svg">
  <g filter="url(#filter0_d_1814_1314)" transform="matrix(1, 0, 0, 1, -5.016538, -5.744922)">
    <path fill-rule="evenodd" clip-rule="evenodd"
      d="M19.0333 13.5063H30.8756C31.7892 13.5063 32.7152 13.5359 33.5661 13.8689C35.0582 14.4528 37.2179 15.9189 36.6932 19.4543C35.8287 25.2784 31.6299 24.9066 31.6299 24.9066C31.6299 24.9066 33.0601 25.3832 33.4823 26.1458C34.0998 27.261 34.0998 28.8719 33.9145 30.6687C33.7293 32.4655 34.3468 35.1917 34.3468 35.1917H28.5194C28.5194 35.1917 28.5481 30.8546 28.5481 28.3763C28.5481 27.5826 27.5892 27.2928 26.8135 27.1371C24.9611 26.7654 21.7502 27.1371 21.7502 27.1371L20.1448 35.1917H14.3405L19.0333 13.5063ZM23.1803 16.4975L21.8182 22.4797H29.0826C29.0826 22.4797 31.8572 22.1948 32.2608 19.3462C32.4048 18.3294 31.9319 17.6352 31.3966 17.1868C30.6644 16.5736 29.6571 16.4975 28.702 16.4975H23.1803Z"
      fill="url(#paint1_linear_1814_1314)"></path>
  </g>
  <defs>
    <linearGradient id="paint1_linear_1814_1314" x1="17.6767" y1="28.5193" x2="32.2547" y2="15.9945"
      gradientUnits="userSpaceOnUse">
      <!-- <stop stop-color="#608ADC"></stop>
      <stop offset="1" stop-color="#6DFFBE"></stop> -->
      <stop stop-color="#fcbb4d"></stop>
      <stop offset="0.5" stop-color="#f45494"></stop>
      <stop offset="1" stop-color="#3262ce"></stop>
    </linearGradient>
  </defs>
</svg>