<svg width="44" height="44" viewBox="0 0 44 44" fill="none" xmlns="http://www.w3.org/2000/svg">
<rect width="44" height="44" rx="22" fill="#016FD0"/>
<mask id="mask0_2692_1745" style="mask-type:alpha" maskUnits="userSpaceOnUse" x="0" y="0" width="44" height="44">
<rect width="44" height="44" rx="22" fill="#016FD0"/>
</mask>
<g mask="url(#mask0_2692_1745)">
<path d="M8.32654 30.5584V23.8242H15.4568L16.2218 24.8215L17.0121 23.8242H42.8932V30.094C42.8932 30.094 42.2164 30.5517 41.4336 30.5584H27.1027L26.2402 29.4969V30.5584H23.4138V28.7463C23.4138 28.7463 23.0277 28.9993 22.193 28.9993H21.231V30.5584H16.9516L16.1877 29.5398L15.4121 30.5584H8.32654Z" fill="white"/>
<path d="M0 18.7486L1.6079 15H4.38861L5.30111 17.0998V15H8.75778L9.301 16.5177L9.82763 15H25.3445V15.763C25.3445 15.763 26.1602 15 27.5008 15L32.5354 15.0176L33.4322 17.0899V15H36.3249L37.1211 16.1904V15H40.0403V21.7342H37.1211L36.3581 20.54V21.7342H32.108L31.6806 20.6726H30.5381L30.1176 21.7342H27.2354C26.0819 21.7342 25.3445 20.9868 25.3445 20.9868V21.7342H20.9988L20.1363 20.6726V21.7342H3.97666L3.54956 20.6726H2.41064L1.98655 21.7342H0V18.7486Z" fill="white"/>
<path d="M2.17689 15.8311L0.00817871 20.8734H1.42012L1.82028 19.8637H4.14656L4.54464 20.8734H5.98769L3.82105 15.8311H2.17689ZM2.97927 17.0046L3.68836 18.769H2.26812L2.97927 17.0046Z" fill="#016FD0"/>
<path d="M6.13708 20.8715V15.8291L8.14354 15.8366L9.31056 19.0875L10.4496 15.8291H12.44V20.8715H11.1794V17.156L9.84319 20.8715H8.73765L7.39768 17.156V20.8715H6.13708Z" fill="#016FD0"/>
<path d="M13.3026 20.8715V15.8291H17.4161V16.957H14.5765V17.8195H17.3498V18.8811H14.5765V19.7767H17.4161V20.8715H13.3026Z" fill="#016FD0"/>
<path d="M18.1459 15.8311V20.8734H19.4065V19.082H19.9372L21.4487 20.8734H22.9892L21.3305 19.0157C22.0113 18.9583 22.7134 18.374 22.7134 17.4669C22.7134 16.4058 21.8806 15.8311 20.9511 15.8311H18.1459ZM19.4065 16.9589H20.8474C21.1931 16.9589 21.4446 17.2293 21.4446 17.4897C21.4446 17.8247 21.1188 18.0205 20.8661 18.0205H19.4065V16.9589Z" fill="#016FD0"/>
<path d="M24.5152 20.8715H23.228V15.8291H24.5152V20.8715Z" fill="#016FD0"/>
<path d="M27.5672 20.8715H27.2893C25.9451 20.8715 25.1289 19.8124 25.1289 18.371C25.1289 16.894 25.9359 15.8291 27.6335 15.8291H29.0268V17.0233H27.5826C26.8934 17.0233 26.4061 17.5611 26.4061 18.3835C26.4061 19.36 26.9634 19.7701 27.7662 19.7701H28.0979L27.5672 20.8715Z" fill="#016FD0"/>
<path d="M30.3102 15.8311L28.1415 20.8734H29.5534L29.9536 19.8637H32.2799L32.6779 20.8734H34.121L31.9544 15.8311H30.3102ZM31.1126 17.0046L31.8217 18.769H30.4014L31.1126 17.0046Z" fill="#016FD0"/>
<path d="M34.2682 20.8715V15.8291H35.8709L37.9173 18.9972V15.8291H39.1779V20.8715H37.627L35.5288 17.6205V20.8715H34.2682Z" fill="#016FD0"/>
<path d="M9.18909 29.6957V24.6533H13.3026V25.7812H10.4629V26.6437H13.2362V27.7053H10.4629V28.601H13.3026V29.6957H9.18909Z" fill="#016FD0"/>
<path d="M29.3452 29.6957V24.6533H33.4587V25.7812H30.6191V26.6437H33.3791V27.7053H30.6191V28.601H33.4587V29.6957H29.3452Z" fill="#016FD0"/>
<path d="M13.4622 29.6957L15.4651 27.2056L13.4146 24.6533H15.0027L16.2239 26.2311L17.4493 24.6533H18.9752L16.9517 27.1745L18.9582 29.6957H17.3703L16.1845 28.1427L15.0276 29.6957H13.4622Z" fill="#016FD0"/>
<path d="M19.1079 24.6553V29.6976H20.4017V28.1053H21.7286C22.8514 28.1053 23.7024 27.5097 23.7024 26.3513C23.7024 25.3917 23.035 24.6553 21.8924 24.6553H19.1079ZM20.4017 25.7956H21.7991C22.1618 25.7956 22.4211 26.0179 22.4211 26.3761C22.4211 26.7127 22.1631 26.9567 21.795 26.9567H20.4017V25.7956Z" fill="#016FD0"/>
<path d="M24.2498 24.6533V29.6957H25.5103V27.9043H26.0411L27.5526 29.6957H29.0931L27.4344 27.838C28.1151 27.7805 28.8173 27.1963 28.8173 26.2892C28.8173 25.2281 27.9845 24.6533 27.055 24.6533H24.2498ZM25.5103 25.7812H26.9513C27.297 25.7812 27.5484 26.0516 27.5484 26.312C27.5484 26.647 27.2226 26.8428 26.97 26.8428H25.5103V25.7812Z" fill="#016FD0"/>
<path d="M34.0425 29.6957V28.601H36.5653C36.9386 28.601 37.1003 28.3992 37.1003 28.178C37.1003 27.966 36.9391 27.7517 36.5653 27.7517H35.4253C34.4343 27.7517 33.8824 27.148 33.8824 26.2415C33.8824 25.433 34.3878 24.6533 35.8604 24.6533H38.3152L37.7845 25.7878H35.6614C35.2555 25.7878 35.1306 26.0008 35.1306 26.2042C35.1306 26.4132 35.285 26.6437 35.595 26.6437H36.7893C37.8939 26.6437 38.3733 27.2703 38.3733 28.0909C38.3733 28.9731 37.8391 29.6957 36.7291 29.6957H34.0425Z" fill="#016FD0"/>
<path d="M38.6691 29.6957V28.601H41.1919C41.5652 28.601 41.7269 28.3992 41.7269 28.178C41.7269 27.966 41.5657 27.7517 41.1919 27.7517H40.0519C39.0609 27.7517 38.509 27.148 38.509 26.2415C38.509 25.433 39.0144 24.6533 40.487 24.6533H42.9418L42.4111 25.7878H40.288C39.8821 25.7878 39.7572 26.0008 39.7572 26.2042C39.7572 26.4132 39.9116 26.6437 40.2216 26.6437H41.4159C42.5205 26.6437 42.9999 27.2703 42.9999 28.0909C42.9999 28.9731 42.4657 29.6957 41.3557 29.6957H38.6691Z" fill="#016FD0"/>
</g>
</svg>
