<svg width="44" height="44" viewBox="0 0 44 44" fill="none" xmlns="http://www.w3.org/2000/svg">
<circle cx="22" cy="22" r="22" fill="black"/>
<path d="M26.5839 13.3525H16.958V30.6464H26.5839V13.3525Z" fill="#FF5A00"/>
<path d="M17.5987 22C17.5987 18.4864 19.2505 15.368 21.7851 13.3531C19.9197 11.8864 17.5667 11 15 11C8.91974 11 4 15.9197 4 22C4 28.0803 8.91974 33 15 33C17.5667 33 19.9197 32.1136 21.7851 30.6469C19.2469 28.6605 17.5987 25.5136 17.5987 22Z" fill="#EB001B"/>
<path d="M39.5703 22C39.5703 28.0803 34.6505 33 28.5703 33C26.0036 33 23.6505 32.1136 21.7852 30.6469C24.3518 28.6285 25.9716 25.5136 25.9716 22C25.9716 18.4864 24.3198 15.368 21.7852 13.3531C23.647 11.8864 26 11 28.5667 11C34.6505 11 39.5703 15.9518 39.5703 22Z" fill="#F79E1B"/>
</svg>
