<svg width="44" height="44" viewBox="0 0 44 44" fill="none" xmlns="http://www.w3.org/2000/svg">
<rect width="44" height="44" rx="22" fill="white"/>
<path d="M20.7332 27.5434H17.979L19.7017 16.4971H22.4558L20.7332 27.5434Z" fill="#00579F"/>
<path d="M30.7176 16.7672C30.1744 16.5437 29.3127 16.2969 28.2473 16.2969C25.5274 16.2969 23.6121 17.801 23.6003 19.9514C23.5777 21.538 24.9717 22.4192 26.0142 22.9482C27.0798 23.4888 27.442 23.8416 27.442 24.3235C27.4311 25.0635 26.5809 25.4046 25.788 25.4046C24.6884 25.4046 24.0992 25.2288 23.2038 24.817L22.8411 24.6405L22.4557 27.1202C23.1017 27.4254 24.2918 27.6962 25.5274 27.7081C28.4174 27.7081 30.2988 26.2273 30.3211 23.9357C30.3321 22.6782 29.596 21.7146 28.0092 20.9273C27.0459 20.4219 26.4559 20.081 26.4559 19.5639C26.4672 19.0938 26.9549 18.6122 28.0423 18.6122C28.9377 18.5886 29.5956 18.8118 30.094 19.0352L30.3431 19.1525L30.7176 16.7672Z" fill="#00579F"/>
<path d="M34.3782 23.6301C34.605 22.9955 35.4778 20.5394 35.4778 20.5394C35.4664 20.563 35.7042 19.8931 35.8402 19.4819L36.0327 20.4337C36.0327 20.4337 36.5542 23.0778 36.6675 23.6301C36.2371 23.6301 34.9222 23.6301 34.3782 23.6301ZM37.778 16.4971H35.6476C34.9906 16.4971 34.4915 16.6967 34.208 17.4136L30.1169 27.5433H33.0069C33.0069 27.5433 33.4827 26.1799 33.5849 25.8863C33.902 25.8863 36.7133 25.8863 37.1211 25.8863C37.2002 26.2741 37.4498 27.5433 37.4498 27.5433H39.9999L37.778 16.4971Z" fill="#00579F"/>
<path d="M15.6786 16.4971L12.9813 24.0296L12.6866 22.5019C12.1879 20.7392 10.624 18.824 8.87866 17.8717L11.3493 27.5317H14.2618L18.591 16.4971H15.6786Z" fill="#00579F"/>
<path d="M10.4766 16.4971H6.04533L6 16.7203C9.45669 17.6369 11.746 19.8466 12.6866 22.5024L11.7232 17.4256C11.5647 16.7201 11.0773 16.5203 10.4766 16.4971Z" fill="#FAA61A"/>
</svg>
