<svg width="284" height="126" viewBox="0 0 284 126" fill="none" xmlns="http://www.w3.org/2000/svg">
<path fill-rule="evenodd" clip-rule="evenodd" d="M75.6291 29.2824C74.525 29.4601 72.7183 29.8651 71.6141 30.1822C70.51 30.4996 68.7535 31.1086 67.7107 31.5359C66.6679 31.9633 65.0117 32.7783 64.0303 33.347C63.0489 33.9158 61.5076 34.9358 60.6051 35.6137C59.7026 36.2917 58.2084 37.5687 57.2847 38.4517C56.361 39.3345 54.9792 40.8655 54.2141 41.8539C53.4493 42.8423 52.3927 44.3585 51.8663 45.2233C51.3399 46.0881 50.5387 47.6044 50.0856 48.5927C49.6328 49.5811 48.9971 51.1984 48.6735 52.1868C48.3496 53.1751 47.8781 54.8935 47.6253 56.0054C47.3175 57.3597 47.1235 59.2134 47.0374 61.6211C46.9573 63.8584 47.0077 65.9785 47.1712 67.2368C47.3155 68.3487 47.6947 70.2693 48.0139 71.5048C48.3331 72.7402 48.9822 74.7113 49.4564 75.885C49.9306 77.0587 50.7807 78.8276 51.3452 79.816C51.91 80.8043 52.9273 82.363 53.6063 83.2795C54.2853 84.196 55.5953 85.7412 56.5172 86.7129C57.4391 87.6847 59.1053 89.1731 60.2196 90.0201C61.334 90.8674 63.0489 92.0252 64.0303 92.5928C65.0117 93.1604 66.6679 93.974 67.7107 94.4008C68.7535 94.8274 70.4788 95.4301 71.5448 95.7401C72.6107 96.05 74.5308 96.4602 75.8113 96.6518C77.0921 96.8432 79.3186 97 80.7593 97C82.2001 97 84.4221 96.8439 85.6973 96.6534C86.9725 96.4627 89.0431 96.0051 90.2985 95.6367C91.5797 95.2607 93.9514 94.2802 95.704 93.4024C97.4679 92.5187 99.6924 91.1828 100.816 90.3324C101.91 89.5042 103.67 87.9495 104.728 86.8774C105.785 85.8055 107.299 84.0044 108.092 82.8752C108.885 81.746 109.952 80.0491 110.464 79.1041C110.976 78.1594 111.716 76.5683 112.109 75.5685C112.502 74.5689 113.102 72.6391 113.443 71.2801C113.783 69.9211 114.183 67.6468 114.331 66.226C114.496 64.6444 114.541 62.6848 114.446 61.1719C114.361 59.8129 114.147 57.8418 113.969 56.7916C113.792 55.7415 113.443 54.1255 113.193 53.2005C112.944 52.2757 112.44 50.8862 112.074 50.1128C111.707 49.3394 110.85 48.1001 110.168 47.3586C109.287 46.4001 108.446 45.7705 107.259 45.1797C105.808 44.4573 105.335 44.3367 103.636 44.2549C102.22 44.1867 101.321 44.2666 100.369 44.5454C99.6464 44.7568 98.64 45.175 98.1321 45.4747C97.6245 45.7743 96.6894 46.5731 96.0542 47.2495C95.4189 47.9258 94.6436 49.0413 94.3313 49.7282C94.019 50.4151 93.6528 51.6283 93.5174 52.4242C93.338 53.4797 93.338 54.2632 93.5174 55.3188C93.6528 56.1146 94.019 57.3278 94.3313 58.0147C94.6436 58.7017 95.4189 59.8172 96.0542 60.4935C96.6894 61.1699 97.624 61.9684 98.1315 62.2676C98.6387 62.567 99.5815 62.986 100.227 63.1985L101.4 63.5848L101.264 64.7369C101.189 65.3706 100.935 66.7359 100.699 67.7708C100.464 68.8056 99.8733 70.5083 99.3866 71.5544C98.8997 72.6003 98.059 74.0783 97.5181 74.8391C96.9769 75.5997 95.8438 76.8911 94.9998 77.709C94.1557 78.5271 92.7358 79.6713 91.8442 80.2522C90.9527 80.8329 89.541 81.5914 88.7068 81.9378C87.8728 82.2842 86.4961 82.7568 85.6478 82.988C84.429 83.3197 83.3559 83.4053 80.5363 83.3948C77.3167 83.3826 76.7754 83.322 75.0052 82.7759C73.9261 82.443 72.4205 81.8543 71.6594 81.4679C70.8986 81.0815 69.6736 80.3564 68.9375 79.8569C68.2014 79.3571 66.9398 78.2842 66.1341 77.4727C65.3283 76.6613 64.2366 75.3526 63.7084 74.5646C63.1802 73.7766 62.4147 72.4053 62.0072 71.5171C61.5997 70.6289 61.051 69.1509 60.7875 68.2326C60.4639 67.1036 60.2703 65.648 60.1898 63.7387C60.0987 61.5814 60.1603 60.4672 60.451 59.0215C60.6602 57.9804 61.1152 56.3923 61.4621 55.4924C61.8087 54.5925 62.5171 53.1367 63.0359 52.2571C63.5547 51.3777 64.7383 49.8581 65.666 48.88C66.5936 47.9022 68.1775 46.5495 69.1855 45.8741C70.1935 45.1986 71.6543 44.3875 72.4314 44.0719C73.2087 43.756 74.08 43.2796 74.3677 43.0128C74.6555 42.7461 75.0304 42.2578 75.2008 41.9278C75.4025 41.5376 75.4926 40.7379 75.4587 39.6415C75.415 38.2369 75.483 37.8519 75.866 37.3353C76.1189 36.9943 76.6032 36.5069 76.9422 36.2521C77.5079 35.8269 77.8735 35.7885 81.3966 35.7829C85.0402 35.7773 85.2713 35.7508 85.9558 35.2597C86.3524 34.9753 86.826 34.4524 87.0082 34.0977C87.1904 33.7428 87.3394 33.0078 87.3394 32.464C87.3394 31.8101 87.1693 31.2207 86.8369 30.724C86.5603 30.311 85.9833 29.7653 85.5543 29.5115C84.866 29.1045 84.3545 29.0447 81.2055 29.0047C78.9597 28.976 76.8923 29.0791 75.6291 29.2824ZM92.3287 31.6531C91.9446 31.7652 91.2779 32.2499 90.8472 32.73C90.3433 33.2915 90.0083 33.9349 89.9079 34.5337C89.7837 35.2739 89.8588 35.6818 90.2742 36.5251C90.5617 37.1082 91.1378 37.8128 91.5547 38.0912C92.0559 38.4256 92.6488 38.5968 93.3055 38.5968C93.8515 38.5968 94.6416 38.4328 95.0613 38.2322C95.4809 38.0316 96.043 37.5581 96.3104 37.1798C96.6272 36.7322 96.827 36.056 96.8835 35.242C96.9549 34.2123 96.8779 33.8533 96.4467 33.2057C96.159 32.7733 95.4765 32.192 94.93 31.9141C94.3835 31.6363 93.7319 31.4179 93.4819 31.4289C93.2319 31.4402 92.713 31.541 92.3287 31.6531ZM183.03 45.5634C181.987 45.6546 180.632 45.8538 180.018 46.0059C179.405 46.1582 177.954 46.7389 176.795 47.2962C175.011 48.154 174.389 48.6096 172.749 50.261C171.081 51.9413 170.654 52.5381 169.675 54.5582C169.05 55.8484 168.32 57.7126 168.052 58.701C167.651 60.1837 167.564 61.1267 167.553 64.092C167.543 66.8819 167.629 68.0129 167.939 69.1462C168.158 69.9492 168.746 71.4654 169.246 72.5156C169.971 74.0395 170.52 74.7931 171.964 76.2487C173.337 77.6333 174.213 78.2948 175.599 78.9956C176.603 79.5033 178.159 80.1327 179.056 80.3944C180.182 80.7228 181.586 80.9059 183.587 80.9854C185.685 81.0687 187.052 81.0016 188.528 80.743C189.65 80.5462 191.407 80.0768 192.431 79.6996C193.456 79.3225 194.844 78.6385 195.516 78.1796C196.215 77.7022 196.953 76.9605 197.241 76.4466C197.546 75.9014 197.745 75.1639 197.748 74.5711C197.75 74.0338 197.587 73.2461 197.386 72.8204C197.186 72.3947 196.739 71.8994 196.394 71.7195C196.048 71.5396 195.476 71.3924 195.123 71.3924C194.769 71.3924 193.735 71.786 192.825 72.2671C191.916 72.7483 190.495 73.351 189.669 73.6066C188.842 73.8622 187.287 74.1381 186.211 74.2198C184.964 74.3144 183.772 74.2686 182.918 74.0931C182.182 73.9417 180.995 73.5066 180.28 73.1263C179.566 72.746 178.634 72.0272 178.211 71.5288C177.787 71.0306 177.204 70.1139 176.915 69.4914C176.626 68.8692 176.277 67.8242 176.141 67.1697C176.004 66.5149 175.892 65.7821 175.892 65.5411C175.892 65.1128 176.129 65.1029 186.431 65.1024C196.018 65.1022 197.041 65.0667 197.751 64.7093C198.198 64.4847 198.699 63.9802 198.922 63.5305C199.199 62.972 199.312 62.2049 199.312 60.8817C199.312 59.8571 199.154 58.2398 198.959 57.2876C198.765 56.3354 198.308 54.8342 197.945 53.9521C197.581 53.0698 196.862 51.7407 196.346 50.9983C195.831 50.2559 194.907 49.2269 194.294 48.7116C193.68 48.196 192.517 47.435 191.709 47.0199C190.901 46.605 189.647 46.1169 188.921 45.9352C188.196 45.7534 187 45.558 186.264 45.5012C185.528 45.4441 184.072 45.4722 183.03 45.5634ZM223.952 45.5542C222.966 45.6436 221.611 45.8979 220.941 46.1191C220.27 46.3404 219.126 46.8215 218.397 47.1886C217.668 47.5556 216.489 48.4162 215.776 49.1008L214.48 50.3457V49.2897C214.48 48.7089 214.333 47.9474 214.154 47.5974C213.974 47.2477 213.526 46.7063 213.158 46.3943C212.789 46.0823 212.075 45.7568 211.57 45.6708C211.065 45.585 210.223 45.5796 209.697 45.6589C209.172 45.7382 208.336 46.0684 207.84 46.3923C207.344 46.7164 206.731 47.3508 206.48 47.802C206.074 48.528 205.892 50.1923 204.898 62.2557C204.28 69.7538 203.774 76.4048 203.774 77.0355C203.774 77.7876 203.936 78.4738 204.246 79.0289C204.508 79.4984 205.129 80.1107 205.64 80.4036C206.339 80.8041 206.885 80.9281 207.9 80.9167C208.815 80.9063 209.538 80.7459 210.186 80.4103C210.708 80.1403 211.383 79.5408 211.687 79.0779C211.991 78.6149 212.297 77.9347 212.366 77.5661C212.435 77.1975 212.831 72.9031 213.245 68.023C213.862 60.7424 214.084 58.9171 214.48 57.8514C214.746 57.1369 215.285 56.129 215.676 55.6117C216.068 55.0941 216.819 54.3401 217.345 53.9359C217.871 53.5321 218.863 53.0372 219.549 52.8364C220.422 52.5808 221.338 52.501 222.601 52.5709C223.84 52.6394 224.686 52.8173 225.298 53.1383C225.789 53.3953 226.463 53.8944 226.795 54.2473C227.128 54.5999 227.542 55.2936 227.715 55.7885C227.889 56.2835 228.098 57.1917 228.18 57.807C228.272 58.4914 228.02 62.5783 227.53 68.3341L226.73 77.7427L227.241 78.7789C227.522 79.349 228.076 80.031 228.471 80.2947C228.866 80.5584 229.647 80.843 230.204 80.9272C230.873 81.0281 231.618 80.9636 232.389 80.7381C233.126 80.522 233.814 80.123 234.253 79.6567C234.635 79.2501 235.075 78.6684 235.231 78.364C235.399 78.0354 235.815 74.2041 236.255 68.9296C236.663 64.0451 236.998 58.8863 237 57.4655C237.002 55.9751 236.874 54.3919 236.697 53.723C236.528 53.0853 236.141 52.0239 235.836 51.3644C235.531 50.7047 234.977 49.7509 234.607 49.2446C234.236 48.7383 233.307 47.9033 232.542 47.389C231.777 46.8748 230.487 46.2595 229.675 46.0219C228.863 45.7842 227.646 45.5452 226.971 45.4906C226.297 45.4363 224.938 45.4648 223.952 45.5542ZM138.48 46.4487C138.084 46.5452 137.509 46.7908 137.201 46.9941C136.893 47.1971 136.489 47.5961 136.304 47.8804C136.119 48.1646 135.912 48.8457 135.843 49.3935C135.753 50.1123 135.83 50.6043 136.12 51.16C136.342 51.5836 136.806 52.1396 137.152 52.3955C137.755 52.8409 138.132 52.8654 146.009 52.973L154.237 53.0853L144.346 63.809C137.491 71.2399 134.344 74.8106 134.094 75.438C133.897 75.936 133.735 76.7067 133.735 77.1506C133.735 77.5946 133.954 78.3505 134.222 78.8308C134.535 79.3917 135.044 79.8667 135.645 80.1599C136.558 80.6049 136.904 80.6148 149.378 80.5532C161.783 80.4919 162.201 80.4757 163.046 80.0294C163.531 79.7729 164.1 79.2268 164.328 78.7973C164.554 78.373 164.739 77.5897 164.739 77.0567C164.739 76.5236 164.587 75.7909 164.401 75.4283C164.215 75.066 163.738 74.5909 163.341 74.3726C162.698 74.0186 161.688 73.9635 153.997 73.8633L145.373 73.751L155.243 63.0486C160.671 57.1623 165.254 52.0071 165.427 51.5926C165.601 51.1782 165.743 50.3156 165.743 49.6761C165.743 48.8522 165.609 48.3326 165.283 47.893C165.03 47.5518 164.546 47.0644 164.207 46.8096C163.605 46.3561 163.336 46.3458 151.396 46.3096C144.688 46.2894 138.876 46.3518 138.48 46.4487ZM188.15 52.488C188.894 52.8559 189.646 53.4573 190.083 54.035C190.477 54.5548 190.996 55.514 191.238 56.1667C191.479 56.8193 191.748 57.9851 191.836 58.7571L191.995 60.1611H184.138H176.281L176.425 59.2554C176.504 58.7574 176.831 57.6895 177.152 56.8826C177.508 55.987 178.157 54.951 178.817 54.2237C179.501 53.4694 180.329 52.8436 181.073 52.5181C181.72 52.2353 182.851 51.9354 183.587 51.8516C184.323 51.7678 185.377 51.7411 185.929 51.7926C186.481 51.844 187.481 52.1569 188.15 52.488Z" fill="#fff"/>
</svg>
